<svg fill="none" viewBox="0 0 16 16" xmlns="http://www.w3.org/2000/svg"><path d="M12.6 0c.703 0 1.37.275 1.86.772l.751.751c.497.497.772 1.16.772 1.86 0 .703-.275 1.37-.771 1.86l-10.5 10.6a.5.5 0 0 1-.355.148H.487a.5.5 0 0 1-.5-.5v-3.75c0-.132.0525-.26.146-.353l10.6-10.6A2.63 2.63 0 0 1 12.6 0ZM9.73 3.2.99 11.96V15h3.16l8.65-8.73L9.73 3.2Zm2.87-2.2c-.438 0-.847.17-1.16.479l-1.01 1.01 3.07 3.07 1.01-1.01c.271-.271.435-.618.472-.994l.0079-.163c0-.437-.17-.847-.479-1.16l-.751-.751A1.63 1.63 0 0 0 12.6 1Z" fill="currentColor"/></svg>
